<svg xmlns="http://www.w3.org/2000/svg" viewBox="0 0 1103 290" role="img" aria-labelledby="title desc">
  <title id="title">반포고등학교</title>
  <desc id="desc">반포고등학교 교표와 학교명</desc>
  <defs>
    <filter id="softShadow" x="-12%" y="-12%" width="124%" height="124%">
      <feDropShadow dx="0" dy="3" stdDeviation="2.2" flood-color="#1f2933" flood-opacity="0.18" />
    </filter>
  </defs>

  <g filter="url(#softShadow)">
    <path d="M223 32 407 144 223 257 38 144Z" fill="#14a8c0" stroke="#2f3338" stroke-width="7" />
    <path d="M223 43 389 144 223 246 56 144Z" fill="none" stroke="#ffffff" stroke-width="4" opacity="0.9" />
  </g>

  <g transform="translate(106 82)">
    <path d="M92 52c-31-20-64-26-101-21 39 2 72 12 101 33v35c-28-22-61-34-99-37 39 10 69 27 87 49h36c-7-19-15-38-24-59Z" fill="#ffffff" />
    <path d="M125 52c31-20 64-26 101-21-39 2-72 12-101 33v35c28-22 61-34 99-37-39 10-69 27-87 49h-36c7-19 15-38 24-59Z" fill="#ffffff" />
    <path d="M85 114h48c-5 22-11 40-25 40-13 0-18-19-23-40Z" fill="#ffffff" />
    <path d="M67 29c13 6 27 15 41 30M150 29c-13 6-27 15-41 30" fill="none" stroke="#ffffff" stroke-width="9" stroke-linecap="round" />
    <text x="29" y="116" font-family="Arial, 'Apple SD Gothic Neo', 'Noto Sans KR', sans-serif" font-size="34" font-weight="800" fill="#ffffff">반</text>
    <text x="158" y="116" font-family="Arial, 'Apple SD Gothic Neo', 'Noto Sans KR', sans-serif" font-size="34" font-weight="800" fill="#ffffff">포</text>
  </g>

  <g transform="translate(190 50)">
    <path d="M34 54C14 39 10 14 32 0c-7 20 14 26 14 42 0 7-4 12-12 12Z" fill="#ec2537" />
    <path d="M55 114c27-19 29-55 6-76 6 25-15 35-31 47-11 9-15 20-10 37 9-12 22-15 35-8Z" fill="#ec2537" />
    <path d="M23 113C-6 91-5 50 24 29c-8 24 10 37 25 49-17 5-27 17-26 35Z" fill="#ec2537" />
  </g>

  <g transform="translate(420 54)">
    <text x="0" y="84" font-family="Arial, 'Apple SD Gothic Neo', 'Noto Sans KR', sans-serif" font-size="86" font-weight="900" fill="#333133">반포고등학교</text>
    <text x="0" y="166" font-family="Arial, 'Apple SD Gothic Neo', 'Noto Sans KR', sans-serif" font-size="54" font-weight="800" letter-spacing="10" fill="#8c9095">BANPO HIGH SCHOOL</text>
  </g>
</svg>
